# xmcd
#
# Track frame offsets: 
#        150
#        15200
#        31281
#        48942
#        66895
#        78866
#        100049
#        110872
#        125820
#        141314
#
# Disc length: 2114 seconds
#
# Revision: 0
# Processed by: cddbd v1.5.2PL0 Copyright (c) Steve Scherf et al.
# Submitted via: ExactAudioCopy v0.95b4
#
DISCID=8008400a
DTITLE=Cliff Darby - That was Then This is Now
DYEAR=2005
DGENRE=Country
TTITLE0=Legacy
TTITLE1=My Old Man
TTITLE2=Pensacola Paradise
TTITLE3=I Glorify You
TTITLE4=Country State of Mind
TTITLE5=Cellblock 17
TTITLE6=In Times Like These
TTITLE7=Old Man River and Me
TTITLE8=Golden Oldie Days
TTITLE9=I Believe
EXTD=
EXTT0=
EXTT1=
EXTT2=
EXTT3=
EXTT4=
EXTT5=
EXTT6=
EXTT7=
EXTT8=
EXTT9=
PLAYORDER=
